<svg width="7" height="14" viewBox="0 0 7 14" fill="none" xmlns="http://www.w3.org/2000/svg">
<path d="M6.84545 13.0307C6.93827 12.9357 6.99023 12.8081 6.99023 12.6753C6.99023 12.5424 6.93827 12.4149 6.84545 12.3199L1.65965 6.99997L6.84545 1.68116C6.93827 1.58613 6.99023 1.45856 6.99023 1.32572C6.99023 1.19288 6.93827 1.06531 6.84545 0.970277C6.80033 0.923938 6.74639 0.887108 6.6868 0.861959C6.62722 0.836811 6.5632 0.823855 6.49852 0.823855C6.43385 0.823855 6.36983 0.836811 6.31024 0.861959C6.25066 0.887108 6.19671 0.923938 6.1516 0.970277L0.636969 6.62857C0.540113 6.72794 0.485906 6.86121 0.485906 6.99997C0.485906 7.13873 0.540113 7.27201 0.636969 7.37137L6.1516 13.0297C6.19671 13.076 6.25066 13.1128 6.31024 13.138C6.36983 13.1631 6.43385 13.1761 6.49852 13.1761C6.5632 13.1761 6.62722 13.1631 6.6868 13.138C6.74639 13.1128 6.80033 13.076 6.84545 13.0297V13.0307Z" fill="black"/>
</svg>
