<svg width="78" height="18" viewBox="0 0 78 18" fill="none" xmlns="http://www.w3.org/2000/svg">
<path d="M8.06097 13.3419C8.06096 14.6466 7.7205 15.6381 7.03959 16.3162C6.35866 16.9943 5.38633 17.3334 4.1226 17.3334C3.09176 17.3334 2.25732 17.0839 1.61927 16.585C0.907831 16.022 0.539756 15.2225 0.515044 14.1863H0.883494C0.920188 15.1073 1.25138 15.8108 1.87707 16.2969C2.44135 16.7318 3.18368 16.9492 4.10406 16.9492C6.49673 16.9492 7.69307 15.7468 7.69308 13.3419V10.3289H7.65601C7.47215 11.1734 7.02133 11.8514 6.30353 12.3631C5.58572 12.8747 4.79734 13.1305 3.93837 13.1305C2.67463 13.1305 1.68686 12.6509 0.975045 11.6917C0.325014 10.8218 -4.95523e-07 9.70879 0 8.35252C-4.95523e-07 6.97089 0.337371 5.83247 1.01211 4.93726C1.76062 3.96477 2.77891 3.47853 4.06699 3.47852C4.9136 3.47853 5.67437 3.74722 6.34931 4.2846C7.02423 4.822 7.4598 5.51273 7.65601 6.35678H7.69308V3.70866H8.06097V13.3419ZM7.67455 8.35252C7.67454 7.1372 7.37386 6.10751 6.77252 5.26345C6.09777 4.32961 5.19593 3.86268 4.06699 3.86267C2.88937 3.86268 1.96301 4.31672 1.28789 5.2248C0.674555 6.04348 0.367888 7.08606 0.367888 8.35252C0.367888 9.59363 0.656207 10.6106 1.23285 11.4035C1.88325 12.2991 2.77891 12.7469 3.91984 12.7469C5.08547 12.7469 6.01801 12.312 6.71747 11.4422C7.35551 10.6235 7.67454 9.59363 7.67455 8.35252Z" fill="#59461B"/>
<path d="M17.4994 8.67871C17.4994 10.1115 17.1375 11.3141 16.4137 12.2866C15.6281 13.361 14.5667 13.8982 13.2296 13.8982C11.9045 13.8982 10.8431 13.361 10.0456 12.2866C9.33375 11.3141 8.97784 10.1115 8.97784 8.67871C8.97784 7.25881 9.33993 6.05637 10.0641 5.07137C10.8617 4.00948 11.9228 3.47853 13.2476 3.47852C14.5727 3.47853 15.6281 4.01592 16.4137 5.09069C17.1375 6.06281 17.4994 7.25881 17.4994 8.67871ZM17.1309 8.67871C17.1309 7.37398 16.8059 6.26738 16.1559 5.3589C15.4317 4.36143 14.4623 3.86268 13.2476 3.86267C12.0329 3.86268 11.0637 4.36143 10.3399 5.3589C9.67749 6.2545 9.34629 7.3611 9.34629 8.67871C9.34629 10.0092 9.67131 11.1223 10.3213 12.0178C11.0455 13.0157 12.0209 13.5146 13.2476 13.5146C14.4746 13.5146 15.4441 13.0157 16.1559 12.0178C16.8059 11.1094 17.1309 9.99633 17.1309 8.67871Z" fill="#59461B"/>
<path d="M26.7298 8.67871C26.7298 10.1115 26.3679 11.3141 25.6442 12.2866C24.8586 13.361 23.7972 13.8982 22.4601 13.8982C21.1349 13.8982 20.0736 13.361 19.276 12.2866C18.5642 11.3141 18.2083 10.1115 18.2083 8.67871C18.2083 7.25881 18.5704 6.05637 19.2946 5.07137C20.0921 4.00948 21.1533 3.47853 22.4781 3.47852C23.8032 3.47853 24.8586 4.01592 25.6442 5.09069C26.3679 6.06281 26.7298 7.25881 26.7298 8.67871ZM26.3614 8.67871C26.3614 7.37398 26.0364 6.26738 25.3863 5.3589C24.6622 4.36143 23.6927 3.86268 22.4781 3.86267C21.2634 3.86268 20.2941 4.36143 19.5703 5.3589C18.908 6.2545 18.5768 7.3611 18.5768 8.67871C18.5768 10.0092 18.9018 11.1223 19.5518 12.0178C20.276 13.0157 21.2514 13.5146 22.4781 13.5146C23.7051 13.5146 24.6745 13.0157 25.3863 12.0178C26.0364 11.1094 26.3614 9.99633 26.3614 8.67871Z" fill="#59461B"/>
<path d="M35.297 13.668H34.9291V10.8858H34.892C34.6467 11.7939 34.1806 12.523 33.4935 13.073C32.8064 13.6231 32.0088 13.8982 31.1008 13.8982C29.8004 13.8982 28.7821 13.3545 28.0459 12.2672C27.3955 11.3076 27.0703 10.1179 27.0703 8.69796C27.0703 7.30344 27.4015 6.11369 28.0639 5.12869C28.8 4.02854 29.8123 3.5747 31.1008 3.57469C32.0455 3.5747 32.8553 3.84018 33.5303 4.37112C34.2052 4.90208 34.6591 5.64092 34.892 6.58764H34.9291V0H35.297V13.668ZM34.9291 8.69796C34.9291 7.31633 34.6284 6.19704 34.0271 5.34009C33.3523 4.35511 32.3769 3.86261 31.1008 3.8626C29.9108 3.86261 28.9845 4.37424 28.3217 5.39748C27.7327 6.29308 27.4382 7.39324 27.4382 8.69796C27.4382 10.0156 27.7265 11.1157 28.3032 11.9984C28.9659 13.0092 29.8985 13.5146 31.1008 13.5146C32.3031 13.5146 33.2602 13.0092 33.972 11.9984C34.6101 11.1029 34.9291 10.0027 34.9291 8.69796Z" fill="#59461B"/>
<path d="M37.2005 13.6674V3.71677H38.4432V5.71789C38.8146 5.01205 39.0403 4.60797 39.3549 4.3831C39.6694 4.15823 40.0683 3.81156 40.4211 3.67338C40.8842 3.49197 41.5456 3.28415 42.0836 3.56866L42.1056 4.97784C41.7102 4.73424 40.7859 5.02725 40.3402 5.23466C40.0181 5.38453 39.6152 5.59468 39.3907 5.8771C39.1269 6.20885 38.8875 6.35334 38.7677 6.74686C38.588 7.34653 38.5159 7.74575 38.5159 8.45784V13.6674H37.2005Z" fill="#59461B"/>
<path d="M43.1168 7.94396H49.2193C49.137 6.98544 48.9037 6.26654 48.5196 5.78727C47.9295 5.04335 47.1646 4.67138 46.2247 4.67137C45.3739 4.67138 44.6587 4.96824 44.079 5.56194C43.4992 6.15567 43.1785 6.94967 43.1168 7.94396ZM49.0412 10.4891L50.5617 10.4712C50.298 11.4894 49.7342 12.487 49.0213 13.0492C48.3084 13.6114 47.3977 13.8924 46.2894 13.8924C44.8934 13.8924 43.7866 13.4443 42.9688 12.5479C42.151 11.6515 41.7422 10.3944 41.7422 8.77658C41.7422 7.10254 42.1555 5.80327 42.9823 4.87878C43.8091 3.95431 44.8815 3.49208 46.1995 3.49207C47.4756 3.49208 48.518 3.94494 49.3268 4.85067C50.1356 5.75642 50.54 7.0307 50.54 8.67352C50.54 8.77347 50.537 8.92338 50.531 9.12326H43.0611C43.121 10.2164 43.4679 11.2868 44.0011 11.8677C44.5343 12.4486 45.5015 12.7391 46.2984 12.7391C46.8915 12.7391 47.6243 12.3692 48.0437 12.0444C48.4631 11.7196 48.7956 11.2012 49.0412 10.4891H49.0412Z" fill="#59461B"/>
<path d="M57.6196 12.4401C57.0205 12.9711 56.4439 13.3459 55.8897 13.5645C55.3355 13.7831 54.7409 13.8924 54.1059 13.8924C53.0574 13.8924 52.2516 13.6254 51.6885 13.0913C51.1253 12.5573 50.8437 11.8748 50.8437 11.0441C50.8437 10.5568 50.9501 10.1118 51.1627 9.70887C51.3754 9.30598 51.654 8.98272 51.9985 8.7391C52.343 8.4955 52.7309 8.31123 53.1623 8.18629C53.4798 8.09885 53.9591 8.01452 54.6001 7.93331C55.9062 7.77091 56.8677 7.57727 57.4848 7.35239C57.4908 7.12127 57.4938 6.97448 57.4938 6.91201C57.4938 6.22491 57.341 5.45561 57.0355 5.17451C56.6221 4.79349 56.008 4.60297 55.1932 4.60296C54.4324 4.60297 53.8707 4.74195 53.5082 5.01991C53.1458 5.29789 52.7014 5.81573 52.7039 6.78083L51.2417 6.77634C51.3855 6.07049 51.5027 5.28013 51.8323 4.84599C52.1618 4.41187 52.638 4.07768 53.2611 3.84343C53.8842 3.6092 54.6061 3.49208 55.4269 3.49207C56.2417 3.49208 56.779 3.59202 57.2883 3.7919C57.7975 3.99179 58.1363 4.29821 58.376 4.60116C58.6156 4.90412 58.73 5.23172 58.8258 5.69395C58.8797 5.98129 58.9067 6.49975 58.9067 7.24932V9.49805C58.9067 11.0659 58.8521 11.5442 58.921 11.9596C58.9899 12.375 59.3933 12.5532 59.9175 12.4576L59.9379 13.7437C59.9379 13.7437 58.6793 13.8213 58.2458 13.6492C57.8923 13.5089 57.6675 12.9086 57.6196 12.4401ZM57.4848 8.50852C56.8977 8.75839 56.2129 8.73244 55.0208 8.98067C54.2668 9.15395 53.9389 9.21138 53.6633 9.33631C53.3877 9.46124 52.8514 9.52301 52.4733 9.99443C52.1693 10.3734 52.213 10.7586 52.213 11.1805C52.213 11.6303 52.5721 12.0051 52.8987 12.3049C53.2252 12.6047 53.8632 12.5713 54.4923 12.5713C55.1153 12.5713 55.6695 12.4292 56.1548 12.145C56.6401 11.8608 56.9965 11.4719 57.2242 10.9785C57.3979 10.5974 57.4848 10.0353 57.4848 9.29192V8.50852Z" fill="#59461B"/>
<path d="M67.7916 13.7411V12.4855C67.1865 13.4725 65.4777 13.9659 64.3035 13.9659C63.5426 13.9659 62.8431 13.7473 62.2051 13.3101C61.567 12.8728 61.0728 12.2622 60.7223 11.4783C60.3718 10.6944 60.1966 9.7933 60.1966 8.77512C60.1966 7.78193 60.3554 6.88088 60.6729 6.07196C60.9904 5.26305 61.4667 4.64308 62.1017 4.21207C62.7368 3.78107 63.4467 3.56557 64.2316 3.56556C64.8067 3.56557 66.138 3.69206 66.5874 3.94503C67.0367 4.19802 67.4021 4.52752 67.6837 4.93354V0.00506592H69.0787V13.7411H67.7916ZM61.4058 8.77512C61.4058 10.0494 61.6634 11.002 62.1787 11.6329C62.6939 12.2638 63.856 12.8385 64.557 12.8385C65.2639 12.8385 66.5829 12.2778 67.0771 11.675C67.5714 11.0723 67.8185 10.1525 67.8185 8.91566C67.8185 7.55394 67.5669 6.5545 67.0637 5.91736C66.5604 5.28022 65.3731 4.65054 64.6362 4.65053C63.9172 4.65054 62.6115 5.26773 62.1293 5.87988C61.647 6.49204 61.4058 7.45712 61.4058 8.77512Z" fill="#59461B"/>
<path d="M70.1992 10.3736L71.4085 10.3576C71.4983 11.0259 71.8618 11.7456 72.2722 12.1016C72.6826 12.4577 73.4073 12.6875 74.1442 12.6875C74.8871 12.6875 75.539 12.5557 75.8985 12.2403C76.2579 11.9248 76.7146 11.6844 76.7147 11.0263C76.7146 10.6452 76.5055 10.1639 76.188 9.9453C75.9663 9.79539 75.2641 9.47524 74.3834 9.24411C73.1971 8.93179 72.4756 8.84312 72.0173 8.61512C71.559 8.38712 71.0604 8.12353 70.8237 7.72063C70.5871 7.31774 70.4688 6.87268 70.4688 6.38544C70.4688 5.94195 70.5661 5.53125 70.7608 5.15333C70.9556 4.77542 71.2207 4.46154 71.5562 4.21167C71.8078 4.01804 72.0249 3.85407 72.4592 3.71976C72.8936 3.58547 73.3594 3.51832 73.8566 3.51831C74.6055 3.51832 75.263 3.63076 75.8292 3.85562C76.3953 4.0805 76.8132 4.38502 77.0828 4.76917C77.3524 5.15333 77.5507 5.92637 77.6526 6.56975L76.4487 6.56128C76.3768 6.04908 75.9042 5.28634 75.5597 4.99899C75.2152 4.71166 74.3507 4.61985 73.7216 4.61984C72.9787 4.61985 72.6248 4.95531 72.3073 5.21141C71.9898 5.46752 71.831 5.76735 71.831 6.1109C71.831 6.32953 71.8213 6.57815 71.9531 6.75304C72.085 6.9342 72.3924 7.21375 72.674 7.33242C72.8357 7.39489 73.3875 7.61634 74.1784 7.84121C75.3226 8.15979 76.0958 8.23909 76.5481 8.4421C77.0004 8.64511 77.3554 8.94026 77.613 9.32753C77.8706 9.71482 77.9994 10.1958 77.9994 10.7705C77.9994 11.3327 77.8422 11.862 77.5276 12.3586C77.2131 12.8552 76.7593 13.2394 76.1662 13.5111C75.5731 13.7828 74.9021 13.9187 74.1532 13.9187C72.913 13.9187 71.9679 13.6501 71.3179 13.1129C70.6679 12.5757 70.3789 11.4293 70.1992 10.3736Z" fill="#59461B"/>
</svg>
