<svg width="121" height="123" viewBox="0 0 121 123" fill="none" xmlns="http://www.w3.org/2000/svg">
<path d="M77.2134 14.3978C98.9152 40.2739 107.306 58.883 93.7162 83.7193C80.1263 108.556 48.4572 108.959 23.6209 95.3696C-1.21543 81.7798 -2.93745 58.2639 10.8855 28.8239C24.7084 -0.616104 55.5116 -11.4783 77.2134 14.3978Z" fill="#FFF4EF"/>
<path d="M51 29.0001C54.4676 28.965 53.8877 41.1385 56.4018 43.5981C58.9159 46.0577 70.9649 45.5323 70.9999 48.9999C71.035 52.4675 58.5306 52.2923 56.4018 54.4016C54.273 56.511 54.2574 68.9296 51 68.9997C47.7426 69.0698 48.4431 57.196 45.5982 54.4016C42.7533 51.6073 31.0351 52.8527 31.0001 48.9999C30.9651 45.147 42.7533 46.5325 45.5982 43.5981C48.4431 40.6637 47.5324 29.0351 51 29.0001Z" fill="#FF7131"/>
</svg>
