<svg width="111" height="110" viewBox="0 0 111 110" fill="none" xmlns="http://www.w3.org/2000/svg">
<path d="M99.2484 45.1656C92.6503 78.2867 83.3886 96.478 55.5127 101.424C27.6368 106.37 7.50043 81.9236 2.55449 54.0477C-2.39144 26.1719 14.871 10.1105 46.4833 2.46492C78.0955 -5.18064 105.846 12.0445 99.2484 45.1656Z" fill="#FFF4EF"/>
<path d="M51 29.0001C54.4676 28.965 53.8877 41.1385 56.4018 43.5981C58.9159 46.0577 70.9649 45.5323 70.9999 48.9999C71.035 52.4675 58.5306 52.2923 56.4018 54.4016C54.273 56.511 54.2574 68.9296 51 68.9997C47.7426 69.0698 48.4431 57.196 45.5982 54.4016C42.7533 51.6073 31.0351 52.8527 31.0001 48.9999C30.9651 45.147 42.7533 46.5325 45.5982 43.5981C48.4431 40.6637 47.5324 29.0351 51 29.0001Z" fill="#FF7131"/>
</svg>
