<svg width="102" height="103" viewBox="0 0 102 103" fill="none" xmlns="http://www.w3.org/2000/svg">
<path d="M50.3012 98.3347C18.5304 86.8823 1.91952 75.0171 1.17598 46.7157C0.432439 18.4142 27.6026 2.139 55.904 1.39546C84.2055 0.65192 97.5198 20.1119 100.377 52.5098C103.234 84.9077 82.0721 109.787 50.3012 98.3347Z" fill="#FFF4EF"/>
<path d="M51 29.0001C54.4676 28.965 53.8877 41.1385 56.4018 43.5981C58.9159 46.0577 70.9649 45.5323 70.9999 48.9999C71.035 52.4675 58.5306 52.2923 56.4018 54.4016C54.273 56.511 54.2574 68.9296 51 68.9997C47.7426 69.0698 48.4431 57.196 45.5982 54.4016C42.7533 51.6073 31.0351 52.8527 31.0001 48.9999C30.9651 45.147 42.7533 46.5325 45.5982 43.5981C48.4431 40.6637 47.5324 29.0351 51 29.0001Z" fill="#FF7131"/>
</svg>
