<svg width="150" height="39" viewBox="0 0 150 39" fill="none" xmlns="http://www.w3.org/2000/svg">
<rect x="0.5" y="0.5" width="149" height="38" stroke="#FF7131"/>
<g clip-path="url(#clip0_249_146)">
<path d="M119.562 14.2846L121 26.2999C120.19 26.2999 119.395 26.1205 118.616 25.7615C117.379 25.1885 116.163 24.9019 114.97 24.9019C113.572 24.9019 112.415 25.3679 111.5 26.2999C110.585 25.3679 109.428 24.9019 108.03 24.9019C106.837 24.9019 105.621 25.1885 104.384 25.7615C103.593 26.1205 102.813 26.2999 102.046 26.2999H102L103.438 14.2846C104.823 13.4848 106.314 13.085 107.91 13.085C109.351 13.085 110.548 13.4187 111.5 14.0862C112.452 13.4187 113.649 13.085 115.09 13.085C116.686 13.085 118.177 13.4848 119.562 14.2846ZM114.97 23.6078C115.768 23.6078 116.485 23.6976 117.122 23.877C117.759 24.0565 118.563 24.3509 119.534 24.7602L118.384 15.1159C117.326 14.6247 116.188 14.3791 114.97 14.3791C113.584 14.3791 112.428 14.823 111.5 15.711C110.572 14.823 109.416 14.3791 108.03 14.3791C106.812 14.3791 105.674 14.6247 104.616 15.1159L103.466 24.7602C104.115 24.4895 104.627 24.2848 105.001 24.1463C105.375 24.0077 105.835 23.8833 106.379 23.7731C106.923 23.6629 107.474 23.6078 108.03 23.6078C109.28 23.6078 110.436 23.9479 111.5 24.628C112.564 23.9479 113.72 23.6078 114.97 23.6078ZM115.341 23.2867L114.831 14.7191C113.526 14.7443 112.415 15.2324 111.5 16.1833C110.56 15.2072 109.403 14.7191 108.03 14.7191C106.942 14.7191 105.903 14.9269 104.913 15.3426L103.855 24.2313C104.622 23.9101 105.329 23.6708 105.975 23.5134C106.622 23.3559 107.307 23.2772 108.03 23.2772C109.323 23.2772 110.479 23.5984 111.5 24.2407C112.564 23.5669 113.72 23.2457 114.97 23.2772L115.341 23.2867Z" fill="black"/>
</g>
<path d="M25.416 25L29.544 13.8H31.4L35.496 25H33.704L32.744 22.264H28.168L27.208 25H25.416ZM28.648 20.92H32.264L30.456 15.816L28.648 20.92ZM38.3585 25L35.3825 17.064H37.1585L39.3665 23.384L41.5745 17.064H43.3345L40.3745 25H38.3585ZM46.9631 25.192C46.2911 25.192 45.7365 25.08 45.2991 24.856C44.8618 24.632 44.5365 24.3387 44.3231 23.976C44.1098 23.6027 44.0031 23.1973 44.0031 22.76C44.0031 21.992 44.3018 21.384 44.8991 20.936C45.4965 20.488 46.3498 20.264 47.4591 20.264H49.5391V20.12C49.5391 19.5013 49.3685 19.0373 49.0271 18.728C48.6965 18.4187 48.2645 18.264 47.7311 18.264C47.2618 18.264 46.8511 18.3813 46.4991 18.616C46.1578 18.84 45.9498 19.176 45.8751 19.624H44.1791C44.2325 19.048 44.4245 18.5573 44.7551 18.152C45.0965 17.736 45.5231 17.4213 46.0351 17.208C46.5578 16.984 47.1285 16.872 47.7471 16.872C48.8565 16.872 49.7151 17.1653 50.3231 17.752C50.9311 18.328 51.2351 19.1173 51.2351 20.12V25H49.7631L49.6191 23.64C49.3951 24.0773 49.0698 24.4453 48.6431 24.744C48.2165 25.0427 47.6565 25.192 46.9631 25.192ZM47.2991 23.816C47.7578 23.816 48.1418 23.7093 48.4511 23.496C48.7711 23.272 49.0165 22.9787 49.1871 22.616C49.3685 22.2533 49.4805 21.8533 49.5231 21.416H47.6351C46.9631 21.416 46.4831 21.5333 46.1951 21.768C45.9178 22.0027 45.7791 22.296 45.7791 22.648C45.7791 23.0107 45.9125 23.2987 46.1791 23.512C46.4565 23.7147 46.8298 23.816 47.2991 23.816ZM54.1726 15.56C53.8526 15.56 53.586 15.464 53.3726 15.272C53.17 15.0693 53.0686 14.8187 53.0686 14.52C53.0686 14.2213 53.17 13.976 53.3726 13.784C53.586 13.5813 53.8526 13.48 54.1726 13.48C54.4926 13.48 54.754 13.5813 54.9566 13.784C55.17 13.976 55.2766 14.2213 55.2766 14.52C55.2766 14.8187 55.17 15.0693 54.9566 15.272C54.754 15.464 54.4926 15.56 54.1726 15.56ZM53.3246 25V17.064H55.0206V25H53.3246ZM57.2595 25V13.48H58.9555V25H57.2595ZM63.7913 25.192C63.1193 25.192 62.5646 25.08 62.1273 24.856C61.6899 24.632 61.3646 24.3387 61.1513 23.976C60.9379 23.6027 60.8313 23.1973 60.8313 22.76C60.8313 21.992 61.1299 21.384 61.7273 20.936C62.3246 20.488 63.1779 20.264 64.2873 20.264H66.3673V20.12C66.3673 19.5013 66.1966 19.0373 65.8553 18.728C65.5246 18.4187 65.0926 18.264 64.5593 18.264C64.0899 18.264 63.6793 18.3813 63.3273 18.616C62.9859 18.84 62.7779 19.176 62.7033 19.624H61.0073C61.0606 19.048 61.2526 18.5573 61.5833 18.152C61.9246 17.736 62.3513 17.4213 62.8633 17.208C63.3859 16.984 63.9566 16.872 64.5753 16.872C65.6846 16.872 66.5433 17.1653 67.1513 17.752C67.7593 18.328 68.0633 19.1173 68.0633 20.12V25H66.5913L66.4473 23.64C66.2233 24.0773 65.8979 24.4453 65.4713 24.744C65.0446 25.0427 64.4846 25.192 63.7913 25.192ZM64.1273 23.816C64.5859 23.816 64.9699 23.7093 65.2793 23.496C65.5993 23.272 65.8446 22.9787 66.0153 22.616C66.1966 22.2533 66.3086 21.8533 66.3513 21.416H64.4633C63.7913 21.416 63.3113 21.5333 63.0233 21.768C62.7459 22.0027 62.6073 22.296 62.6073 22.648C62.6073 23.0107 62.7406 23.2987 63.0073 23.512C63.2846 23.7147 63.6579 23.816 64.1273 23.816ZM74.5048 25.192C73.8861 25.192 73.3368 25.0693 72.8568 24.824C72.3874 24.5787 72.0141 24.232 71.7368 23.784L71.5608 25H70.0408V13.48H71.7368V18.296C71.9928 17.9227 72.3448 17.592 72.7928 17.304C73.2408 17.016 73.8168 16.872 74.5208 16.872C75.2888 16.872 75.9661 17.0533 76.5528 17.416C77.1394 17.7787 77.5981 18.2747 77.9288 18.904C78.2701 19.5333 78.4408 20.248 78.4408 21.048C78.4408 21.848 78.2701 22.5627 77.9288 23.192C77.5981 23.8107 77.1394 24.3013 76.5528 24.664C75.9661 25.016 75.2834 25.192 74.5048 25.192ZM74.2168 23.72C74.9421 23.72 75.5394 23.4747 76.0088 22.984C76.4781 22.4827 76.7128 21.832 76.7128 21.032C76.7128 20.5093 76.6061 20.0453 76.3928 19.64C76.1794 19.2347 75.8861 18.92 75.5128 18.696C75.1394 18.4613 74.7074 18.344 74.2168 18.344C73.4914 18.344 72.8941 18.5947 72.4248 19.096C71.9661 19.5973 71.7368 20.2427 71.7368 21.032C71.7368 21.832 71.9661 22.4827 72.4248 22.984C72.8941 23.4747 73.4914 23.72 74.2168 23.72ZM80.2751 25V13.48H81.9711V25H80.2751ZM87.8309 25.192C87.0522 25.192 86.3589 25.0213 85.7509 24.68C85.1535 24.328 84.6842 23.8427 84.3429 23.224C84.0015 22.6053 83.8309 21.8853 83.8309 21.064C83.8309 20.232 83.9962 19.5013 84.3269 18.872C84.6682 18.2427 85.1375 17.752 85.7349 17.4C86.3429 17.048 87.0469 16.872 87.8469 16.872C88.6255 16.872 89.3029 17.048 89.8789 17.4C90.4549 17.7413 90.9029 18.2 91.2229 18.776C91.5429 19.352 91.7029 19.9867 91.7029 20.68C91.7029 20.7867 91.6975 20.904 91.6869 21.032C91.6869 21.1493 91.6815 21.2827 91.6709 21.432H85.4949C85.5482 22.2 85.7989 22.7867 86.2469 23.192C86.7055 23.5867 87.2335 23.784 87.8309 23.784C88.3109 23.784 88.7109 23.6773 89.0309 23.464C89.3615 23.24 89.6069 22.9413 89.7669 22.568H91.4629C91.2495 23.3147 90.8229 23.9387 90.1829 24.44C89.5535 24.9413 88.7695 25.192 87.8309 25.192ZM87.8309 18.264C87.2655 18.264 86.7642 18.4347 86.3269 18.776C85.8895 19.1067 85.6229 19.608 85.5269 20.28H90.0069C89.9749 19.6613 89.7562 19.1707 89.3509 18.808C88.9455 18.4453 88.4389 18.264 87.8309 18.264Z" fill="black"/>
<defs>
<clipPath id="clip0_249_146">
<rect width="19" height="13.3" fill="white" transform="translate(102 13)"/>
</clipPath>
</defs>
</svg>
