<svg width="32" height="32" viewBox="0 0 32 32" fill="none" xmlns="http://www.w3.org/2000/svg">
<path d="M15.9998 2.66669C8.63317 2.66669 2.66651 8.63335 2.66651 16C2.66499 18.7991 3.54492 21.5275 5.18146 23.7983C6.818 26.069 9.12803 27.7668 11.7838 28.6507C12.4505 28.7667 12.6998 28.3667 12.6998 28.016C12.6998 27.7 12.6825 26.6507 12.6825 25.5334C9.33317 26.1507 8.46651 24.7174 8.19984 23.9667C8.04917 23.5827 7.39984 22.4 6.83317 22.0827C6.36651 21.8334 5.69984 21.216 6.81584 21.2C7.86651 21.1827 8.61584 22.1667 8.86651 22.5667C10.0665 24.5827 11.9838 24.016 12.7492 23.6667C12.8665 22.8 13.2158 22.2174 13.5998 21.884C10.6332 21.5507 7.53317 20.4 7.53317 15.3C7.53317 13.8494 8.04917 12.6507 8.89984 11.716C8.76651 11.3827 8.29984 10.016 9.03317 8.18269C9.03317 8.18269 10.1492 7.83335 12.6998 9.55069C13.7853 9.24943 14.9067 9.09781 16.0332 9.10002C17.1665 9.10002 18.2998 9.24935 19.3665 9.54935C21.9158 7.81602 23.0332 8.18402 23.0332 8.18402C23.7665 10.0174 23.2998 11.384 23.1665 11.7174C24.0158 12.6507 24.5332 13.8334 24.5332 15.3C24.5332 20.4174 21.4172 21.5507 18.4505 21.884C18.9332 22.3 19.3505 23.1 19.3505 24.3507C19.3505 26.1334 19.3332 27.5667 19.3332 28.0174C19.3332 28.3667 19.5838 28.7827 20.2505 28.6494C22.8972 27.7558 25.1971 26.0547 26.8264 23.7856C28.4557 21.5164 29.3324 18.7935 29.3332 16C29.3332 8.63335 23.3665 2.66669 15.9998 2.66669Z" fill="white"/>
</svg>
