<svg width="230" height="230" viewBox="0 0 230 230" fill="none" xmlns="http://www.w3.org/2000/svg">
<g filter="url(#filter0_d_266_205)">
<rect x="30" y="20" width="170" height="170" rx="85" fill="white"/>
<circle cx="115" cy="105" r="73.5" fill="white" stroke="#FF7131" stroke-width="3"/>
<path d="M75.5404 106.954C75.5404 110.11 75.2876 111.138 74.6373 111.895C73.9136 112.546 72.9741 112.905 72.0002 112.905L72.2531 114.708C73.7629 114.728 75.2279 114.196 76.3713 113.211C76.9865 112.462 77.4443 111.597 77.7173 110.668C77.9904 109.739 78.0732 108.764 77.9608 107.802V95.8647H75.5404V106.882V106.954Z" fill="#4E4E4E"/>
<path d="M93.5908 105.532C93.5908 106.884 93.5908 108.092 93.6991 109.138H91.5497L91.4053 106.992C90.9557 107.752 90.3127 108.378 89.5418 108.809C88.7709 109.24 87.8995 109.459 87.0161 109.445C84.9209 109.445 82.4283 108.309 82.4283 103.675V95.9749H84.8487V103.188C84.8487 105.694 85.6254 107.371 87.8109 107.371C88.2605 107.376 88.7066 107.291 89.123 107.121C89.5393 106.952 89.9176 106.701 90.2355 106.384C90.5535 106.066 90.8048 105.689 90.9746 105.273C91.1445 104.857 91.2295 104.412 91.2246 103.963V95.8848H93.6449V105.46L93.5908 105.532Z" fill="#4E4E4E"/>
<path d="M98.1784 100.265C98.1784 98.5876 98.1784 97.2172 98.0701 95.973H100.238L100.346 98.227C100.829 97.4126 101.524 96.7444 102.357 96.2934C103.191 95.8425 104.131 95.6258 105.078 95.6664C108.293 95.6664 110.714 98.3532 110.714 102.356C110.714 107.081 107.806 109.425 104.663 109.425C103.858 109.461 103.058 109.289 102.34 108.925C101.622 108.562 101.01 108.02 100.563 107.351V114.564H98.1784V100.319V100.265ZM100.563 103.781C100.569 104.108 100.605 104.434 100.671 104.754C100.876 105.555 101.342 106.265 101.997 106.771C102.651 107.277 103.456 107.551 104.283 107.549C106.83 107.549 108.329 105.476 108.329 102.464C108.329 99.8318 106.921 97.5778 104.374 97.5778C103.366 97.6602 102.423 98.1068 101.721 98.8338C101.02 99.5607 100.608 100.518 100.563 101.527V103.781Z" fill="#4E4E4E"/>
<path d="M115.026 95.9609L117.934 103.733C118.241 104.598 118.566 105.644 118.783 106.419C119.036 105.626 119.307 104.616 119.632 103.678L122.269 95.9609H124.816L121.203 105.337C119.397 109.845 118.295 112.171 116.633 113.578C115.796 114.341 114.776 114.875 113.671 115.129L113.075 113.109C113.848 112.856 114.565 112.458 115.188 111.937C116.07 111.22 116.769 110.306 117.229 109.268C117.328 109.089 117.395 108.894 117.428 108.691C117.408 108.474 117.353 108.261 117.266 108.06L112.353 95.9248H114.99L115.026 95.9609Z" fill="#4E4E4E"/>
<path d="M131.241 92.1782V95.9649H134.709V97.7681H131.241V104.873C131.241 106.495 131.711 107.433 133.047 107.433C133.522 107.441 133.996 107.386 134.456 107.271L134.565 109.074C133.874 109.313 133.146 109.423 132.415 109.399C131.932 109.429 131.447 109.354 130.995 109.18C130.543 109.006 130.134 108.736 129.796 108.389C129.061 107.406 128.725 106.182 128.857 104.963V97.7501H126.798V95.9469H128.893V92.7372L131.241 92.1782Z" fill="#4E4E4E"/>
<path d="M139.168 102.971C139.119 103.583 139.203 104.198 139.415 104.774C139.628 105.349 139.963 105.872 140.397 106.306C140.832 106.74 141.355 107.074 141.932 107.286C142.509 107.498 143.125 107.582 143.737 107.534C144.976 107.561 146.207 107.328 147.35 106.848L147.765 108.651C146.363 109.228 144.856 109.504 143.34 109.463C142.456 109.523 141.57 109.392 140.742 109.079C139.914 108.765 139.164 108.276 138.543 107.646C137.921 107.015 137.444 106.258 137.144 105.427C136.843 104.595 136.726 103.708 136.801 102.827C136.801 98.8602 139.168 95.7227 143.033 95.7227C147.368 95.7227 148.452 99.5093 148.452 101.926C148.475 102.298 148.475 102.671 148.452 103.044H139.113L139.168 102.971ZM146.248 101.168C146.318 100.686 146.283 100.195 146.146 99.7272C146.01 99.2596 145.774 98.8266 145.456 98.4575C145.138 98.0885 144.744 97.7918 144.301 97.5875C143.858 97.3832 143.376 97.2761 142.888 97.2734C141.896 97.3451 140.966 97.7842 140.281 98.5047C139.596 99.2252 139.206 100.175 139.186 101.168H146.248Z" fill="#4E4E4E"/>
<path d="M152.124 100.061C152.124 98.5105 152.124 97.1762 152.016 95.95H154.183V98.5286H154.291C154.519 97.7327 154.989 97.0273 155.636 96.5103C156.284 95.9933 157.076 95.6904 157.904 95.6435C158.132 95.6136 158.362 95.6136 158.59 95.6435V97.8975C158.314 97.8655 158.035 97.8655 157.759 97.8975C156.939 97.9292 156.159 98.2578 155.564 98.8219C154.969 99.386 154.6 100.147 154.526 100.963C154.459 101.332 154.422 101.706 154.418 102.081V109.095H152.034V100.079L152.124 100.061Z" fill="#4E4E4E"/>
<path d="M151.063 59.7432C151.137 60.9546 150.848 62.1606 150.234 63.2076C149.619 64.2547 148.706 65.0952 147.611 65.6224C146.516 66.1495 145.288 66.3392 144.085 66.1675C142.881 65.9957 141.756 65.4702 140.853 64.6579C139.95 63.8456 139.309 62.7832 139.013 61.6062C138.717 60.4292 138.778 59.1907 139.189 58.0486C139.6 56.9065 140.343 55.9124 141.322 55.193C142.301 54.4736 143.472 54.0615 144.687 54.0091C145.483 53.9654 146.28 54.0792 147.032 54.3441C147.785 54.609 148.477 55.0197 149.069 55.5526C149.662 56.0855 150.143 56.73 150.485 57.4492C150.827 58.1684 151.024 58.948 151.063 59.7432Z" fill="#767677"/>
<path d="M115.347 130.361C99.0914 130.361 84.8042 124.537 77.4167 115.936C80.2831 123.674 85.4551 130.349 92.2366 135.064C99.018 139.778 107.084 142.306 115.347 142.306C123.611 142.306 131.676 139.778 138.458 135.064C145.24 130.349 150.411 123.674 153.278 115.936C145.909 124.537 131.675 130.361 115.347 130.361Z" fill="#F37726"/>
<path d="M115.347 74.4304C131.603 74.4304 145.891 80.2547 153.278 88.8559C150.411 81.1182 145.24 74.4428 138.458 69.7282C131.676 65.0137 123.611 62.4863 115.347 62.4863C107.084 62.4863 99.018 65.0137 92.2366 69.7282C85.4551 74.4428 80.2831 81.1182 77.4167 88.8559C84.8042 80.2367 99.0192 74.4304 115.347 74.4304Z" fill="#F37726"/>
<path d="M92.9697 147.1C93.0651 148.625 92.7032 150.145 91.9304 151.465C91.1575 152.785 90.0086 153.845 88.6299 154.511C87.2513 155.176 85.7054 155.417 84.1892 155.202C82.673 154.988 81.2552 154.327 80.1163 153.305C78.9774 152.283 78.169 150.946 77.7942 149.464C77.4193 147.981 77.495 146.421 78.0115 144.982C78.5281 143.543 79.4621 142.29 80.6945 141.382C81.927 140.475 83.4022 139.954 84.932 139.887C85.9342 139.833 86.9372 139.977 87.8836 140.311C88.83 140.645 89.7013 141.161 90.4477 141.831C91.1941 142.501 91.801 143.311 92.2337 144.215C92.6665 145.119 92.9166 146.099 92.9697 147.1Z" fill="#9E9E9E"/>
<path d="M79.2642 72.4701C78.3883 72.4942 77.5248 72.2593 76.7822 71.7948C76.0397 71.3303 75.4513 70.657 75.0911 69.8595C74.7309 69.0621 74.6148 68.1761 74.7576 67.313C74.9004 66.4499 75.2957 65.6483 75.8937 65.0088C76.4916 64.3694 77.2657 63.9207 78.1184 63.7193C78.9711 63.5179 79.8644 63.5726 80.686 63.8767C81.5077 64.1808 82.2209 64.7206 82.736 65.4283C83.2511 66.1359 83.5451 66.9799 83.5811 67.8539C83.6153 69.0358 83.1812 70.1834 82.373 71.0477C81.5648 71.912 80.4476 72.4231 79.2642 72.4701Z" fill="#616262"/>
</g>
<defs>
<filter id="filter0_d_266_205" x="0" y="0" width="230" height="230" filterUnits="userSpaceOnUse" color-interpolation-filters="sRGB">
<feFlood flood-opacity="0" result="BackgroundImageFix"/>
<feColorMatrix in="SourceAlpha" type="matrix" values="0 0 0 0 0 0 0 0 0 0 0 0 0 0 0 0 0 0 127 0" result="hardAlpha"/>
<feOffset dy="10"/>
<feGaussianBlur stdDeviation="15"/>
<feComposite in2="hardAlpha" operator="out"/>
<feColorMatrix type="matrix" values="0 0 0 0 0.925 0 0 0 0 0.82431 0 0 0 0 0.778542 0 0 0 0.29 0"/>
<feBlend mode="normal" in2="BackgroundImageFix" result="effect1_dropShadow_266_205"/>
<feBlend mode="normal" in="SourceGraphic" in2="effect1_dropShadow_266_205" result="shape"/>
</filter>
</defs>
</svg>
