<svg width="124" height="125" viewBox="0 0 124 125" fill="none" xmlns="http://www.w3.org/2000/svg">
<path d="M82.1981 91.2487C50.3117 102.375 29.9368 103.628 11.5264 82.1207C-6.88403 60.613 3.9585 30.855 25.4662 12.4446C46.9739 -5.96585 69.5745 0.755399 92.2074 24.1122C114.84 47.4689 114.085 80.1224 82.1981 91.2487Z" fill="#FFF4EF"/>
<path d="M53 29.0001C56.4676 28.965 55.8877 41.1385 58.4018 43.5981C60.9159 46.0577 72.9649 45.5323 72.9999 48.9999C73.035 52.4675 60.5306 52.2923 58.4018 54.4016C56.273 56.511 56.2574 68.9296 53 68.9997C49.7426 69.0698 50.4431 57.196 47.5982 54.4016C44.7533 51.6073 33.0351 52.8527 33.0001 48.9999C32.9651 45.147 44.7533 46.5325 47.5982 43.5981C50.4431 40.6637 49.5324 29.0351 53 29.0001Z" fill="#FF7131"/>
</svg>
